<svg width="100" height="100" viewBox="0 0 100 100" fill="none" xmlns="http://www.w3.org/2000/svg">
  <path fill="#f0fdf4" d="M96,95.5 C97.2,95.5 98.5,96.3 98.5,98 C98.5,99.2 97.7,100.5 96,100.5 C94.8,100.5 93.5,99.7 93.5,98 C93.5,96.8 94.3,95.5 96,95.5z M98,93.5 C99.2,93.5 100.5,94.3 100.5,96 C100.5,97.2 99.7,98.5 98,98.5 C96.8,98.5 95.5,97.7 95.5,96 C95.5,94.8 96.3,93.5 98,93.5z"/>
  <path fill="#f0fdf4" d="M96,0.5 C97.2,0.5 98.5,1.3 98.5,3 C98.5,4.2 97.7,5.5 96,5.5 C94.8,5.5 93.5,4.7 93.5,3 C93.5,1.8 94.3,0.5 96,0.5z M98,-1.5 C99.2,-1.5 100.5,-0.7 100.5,1 C100.5,2.2 99.7,3.5 98,3.5 C96.8,3.5 95.5,2.7 95.5,1 C95.5,-0.2 96.3,-1.5 98,-1.5z"/>
  <path fill="#f0fdf4" d="M1,95.5 C2.2,95.5 3.5,96.3 3.5,98 C3.5,99.2 2.7,100.5 1,100.5 C-0.2,100.5 -1.5,99.7 -1.5,98 C-1.5,96.8 -0.7,95.5 1,95.5z M3,93.5 C4.2,93.5 5.5,94.3 5.5,96 C5.5,97.2 4.7,98.5 3,98.5 C1.8,98.5 0.5,97.7 0.5,96 C0.5,94.8 1.3,93.5 3,93.5z"/>
  <path fill="#f0fdf4" d="M1,0.5 C2.2,0.5 3.5,1.3 3.5,3 C3.5,4.2 2.7,5.5 1,5.5 C-0.2,5.5 -1.5,4.7 -1.5,3 C-1.5,1.8 -0.7,0.5 1,0.5z M3,-1.5 C4.2,-1.5 5.5,-0.7 5.5,1 C5.5,2.2 4.7,3.5 3,3.5 C1.8,3.5 0.5,2.7 0.5,1 C0.5,-0.2 1.3,-1.5 3,-1.5z"/>
  <circle cx="50" cy="50" r="0.5" fill="#dcfce7" />
</svg> 